<svg xmlns="http://www.w3.org/2000/svg" viewBox="0 0 73.8 89.8"><title>Asset 1</title><g id="Layer_2" data-name="Layer 2"><g id="Layer_1-2" data-name="Layer 1"><path d="M36.9,56.9a1,1,0,1,0-1-1A1,1,0,0,0,36.9,56.9Zm-5.5,5a1.5,1.5,0,1,0-1.5-1.5A1.5,1.5,0,0,0,31.4,61.9Zm16.5-2a1,1,0,1,0-1-1A1,1,0,0,0,47.9,59.9Zm-11,0a4,4,0,1,0-4-4A4,4,0,0,0,36.9,59.9Zm0-6a2,2,0,1,1-2,2A2,2,0,0,1,36.9,53.9Zm0,10a1,1,0,1,0,1,1A1,1,0,0,0,36.9,63.9Zm-5.5,7a1.5,1.5,0,1,0-1.5-1.5A1.5,1.5,0,0,0,31.4,70.9Zm21.5-2a1,1,0,1,0-1-1A1,1,0,0,0,52.9,68.9Zm0-3a1,1,0,1,0-1-1A1,1,0,0,0,52.9,65.9Zm-10-37.5a1.5,1.5,0,0,0,3,0,1.64,1.64,0,0,0-.09-.5H46.9v-1h-5v1H43A1.64,1.64,0,0,0,42.9,28.4Zm2,2.5a2,2,0,1,0,2,2A2,2,0,0,0,44.9,30.9Zm-17-2.5a1.5,1.5,0,0,0,3,0,1.64,1.64,0,0,0-.09-.5H31.9v-1h-5v1H28A1.64,1.64,0,0,0,27.9,28.4Zm9,8.5a2,2,0,0,0,2-2h1v-1H38.62a2,2,0,0,0-3.44,0H33.9v1h1A2,2,0,0,0,36.9,36.9Zm16,26a1,1,0,1,0-1-1A1,1,0,0,0,52.9,62.9Zm-24-28a2,2,0,1,0-2-2A2,2,0,0,0,28.9,34.9Zm8,47a1,1,0,1,0,1,1A1,1,0,0,0,36.9,81.9Zm0-21a4,4,0,1,0,4,4A4,4,0,0,0,36.9,60.9Zm0,6a2,2,0,1,1,2-2A2,2,0,0,1,36.9,66.9Zm11,1a1,1,0,1,0-1-1A1,1,0,0,0,47.9,67.9Zm0,6a1,1,0,1,0-1-1A1,1,0,0,0,47.9,73.9Zm0-3a1,1,0,1,0-1-1A1,1,0,0,0,47.9,70.9Zm5,10a1,1,0,1,0,1,1A1,1,0,0,0,52.9,80.9Zm-16-11a4,4,0,1,0,4,4A4,4,0,0,0,36.9,69.9Zm0,6a2,2,0,1,1,2-2A2,2,0,0,1,36.9,75.9Zm11-15a2,2,0,1,0,2,2A2,2,0,0,0,47.9,60.9Zm-5.5,7a1.5,1.5,0,1,0,1.5,1.5A1.5,1.5,0,0,0,42.4,67.9Zm0,9a1.5,1.5,0,1,0,1.5,1.5A1.5,1.5,0,0,0,42.4,76.9Zm0-18a1.5,1.5,0,1,0,1.5,1.5A1.5,1.5,0,0,0,42.4,58.9Zm5.5,24a1,1,0,1,0,1,1A1,1,0,0,0,47.9,82.9Zm0-5a2,2,0,1,0,2,2A2,2,0,0,0,47.9,77.9Zm0-1a1,1,0,1,0-1-1A1,1,0,0,0,47.9,76.9Zm10,0a1,1,0,1,0-1-1A1,1,0,0,0,57.9,76.9Zm0-9a1,1,0,1,0-1-1A1,1,0,0,0,57.9,67.9Zm0,6a1,1,0,1,0-1-1A1,1,0,0,0,57.9,73.9Zm0-13a2,2,0,1,0,2,2A2,2,0,0,0,57.9,60.9Zm2.9-17.65V21.9A21.92,21.92,0,0,0,38.9,0h-4A21.92,21.92,0,0,0,13,21.9V43.25A31.94,31.94,0,0,0,0,68.9v12c0,3,3.74,5.21,11.78,6.81A134.16,134.16,0,0,0,36.9,89.8,134.16,134.16,0,0,0,62,87.71c8-1.6,11.78-3.77,11.78-6.81v-12A31.94,31.94,0,0,0,60.8,43.25ZM68.9,61.9a1,1,0,1,1-1-1A1,1,0,0,1,68.9,61.9Zm-1,4a1,1,0,1,1,1-1A1,1,0,0,1,67.9,65.9Zm1,2a1,1,0,1,1-1-1A1,1,0,0,1,68.9,67.9Zm-16-32a1,1,0,1,1-1,1A1,1,0,0,1,52.9,35.9Zm0,3a1,1,0,1,1-1,1A1,1,0,0,1,52.9,38.9Zm0,3a2,2,0,1,1-2,2A2,2,0,0,1,52.9,41.9Zm0,7a1,1,0,1,1,1-1A1,1,0,0,1,52.9,48.9Zm1,2a1,1,0,1,1-1-1A1,1,0,0,1,53.9,50.9Zm-10-40a1,1,0,1,1-1,1A1,1,0,0,1,43.9,10.9Zm-3,0a1,1,0,1,1-1,1A1,1,0,0,1,40.9,10.9Zm-4-1a2,2,0,1,1-2,2A2,2,0,0,1,36.9,9.9Zm-4,1a1,1,0,1,1-1,1A1,1,0,0,1,32.9,10.9Zm-3,0a1,1,0,1,1-1,1A1,1,0,0,1,29.9,10.9Zm-7,14.87a18,18,0,0,0,14-8.14,18,18,0,0,0,14,8.14c0,.37.06.75.06,1.13a14.1,14.1,0,0,1-28.2,0C22.8,26.52,22.83,26.14,22.86,25.77Zm-2,10.13a1,1,0,1,1-1,1A1,1,0,0,1,20.9,35.9Zm0,3a1,1,0,1,1-1,1A1,1,0,0,1,20.9,38.9Zm0,3a2,2,0,1,1-2,2A2,2,0,0,1,20.9,41.9Zm0,7a1,1,0,1,1,1-1A1,1,0,0,1,20.9,48.9Zm1,2a1,1,0,1,1-1-1A1,1,0,0,1,21.9,50.9Zm-16,10a1,1,0,1,1-1,1A1,1,0,0,1,5.9,60.9Zm0,3a1,1,0,1,1-1,1A1,1,0,0,1,5.9,63.9Zm0,3a1,1,0,1,1-1,1A1,1,0,0,1,5.9,66.9Zm0,16a1,1,0,1,1,1-1A1,1,0,0,1,5.9,82.9Zm0-3a1,1,0,1,1,1-1A1,1,0,0,1,5.9,79.9Zm0-3a1,1,0,1,1,1-1A1,1,0,0,1,5.9,76.9Zm0-3a2,2,0,1,1,2-2A2,2,0,0,1,5.9,73.9Zm31,11a2,2,0,1,1,2-2A2,2,0,0,1,36.9,84.9Zm25-19V83.85c-1,.21-2,.4-3.18.59a1,1,0,0,0,.18-.54,1,1,0,1,0-1.62.77c-1.07.16-2.22.3-3.42.44a1.55,1.55,0,0,0,0-.21,1,1,0,0,0-2,0,1.12,1.12,0,0,0,.09.41c-3.67.36-7.87.6-12.57.67A4,4,0,0,0,40.9,82.9a4,4,0,0,0-8,0A4,4,0,0,0,34.38,86c-4.7-.07-8.9-.31-12.57-.67a1.12,1.12,0,0,0,.09-.41,1,1,0,0,0-2,0,1.55,1.55,0,0,0,0,.21c-1.2-.14-2.35-.28-3.42-.44a1,1,0,1,0-1.62-.77,1,1,0,0,0,.18.54c-1.14-.19-2.21-.38-3.18-.59V65.9c0-4.42-2.46-8-5.5-8a3.16,3.16,0,0,0-.32,0A28.32,28.32,0,0,1,7.5,55.06a19.43,19.43,0,0,0,7.55,3.34,1,1,0,0,0-.15.5,1,1,0,1,0,2,0,.79.79,0,0,0,0-.22,20,20,0,0,0,2,.12c.35,0,.69,0,1,0a.7.7,0,0,0,0,.14,1,1,0,0,0,2,0,1.13,1.13,0,0,0-.06-.32,19.29,19.29,0,0,0,15.06-12A19.29,19.29,0,0,0,52,58.58a1.13,1.13,0,0,0-.06.32,1,1,0,0,0,2,0,.7.7,0,0,0,0-.14c.34,0,.68,0,1,0a19.6,19.6,0,0,0,2-.12,1.43,1.43,0,0,0,0,.22,1,1,0,0,0,2,0,1,1,0,0,0-.15-.5,19.47,19.47,0,0,0,7.56-3.34,28.32,28.32,0,0,1,1.42,2.87l-.33,0C64.36,57.9,61.9,61.48,61.9,65.9Zm6,17a1,1,0,1,1,1-1A1,1,0,0,1,67.9,82.9Zm0-3a1,1,0,1,1,1-1A1,1,0,0,1,67.9,79.9Zm0-3a1,1,0,1,1,1-1A1,1,0,0,1,67.9,76.9Zm0-3a2,2,0,1,1,2-2A2,2,0,0,1,67.9,73.9Zm-15,1a1,1,0,1,0,1,1A1,1,0,0,0,52.9,74.9Zm0,3a1,1,0,1,0,1,1A1,1,0,0,0,52.9,77.9Zm0-8a2,2,0,1,0,2,2A2,2,0,0,0,52.9,69.9Zm5,1a1,1,0,1,0-1-1A1,1,0,0,0,57.9,70.9Zm0,7a2,2,0,1,0,2,2A2,2,0,0,0,57.9,77.9Zm-32-1a1,1,0,1,0-1-1A1,1,0,0,0,25.9,76.9Zm-10,0a1,1,0,1,0-1-1A1,1,0,0,0,15.9,76.9Zm0-9a1,1,0,1,0-1-1A1,1,0,0,0,15.9,67.9Zm0,6a1,1,0,1,0-1-1A1,1,0,0,0,15.9,73.9Zm21-1a1,1,0,1,0,1,1A1,1,0,0,0,36.9,72.9Zm-21-12a2,2,0,1,0,2,2A2,2,0,0,0,15.9,60.9Zm5,2a1,1,0,1,0-1-1A1,1,0,0,0,20.9,62.9Zm0,3a1,1,0,1,0-1-1A1,1,0,0,0,20.9,65.9Zm0,12a1,1,0,1,0,1,1A1,1,0,0,0,20.9,77.9Zm0-9a1,1,0,1,0-1-1A1,1,0,0,0,20.9,68.9Zm-5,2a1,1,0,1,0-1-1A1,1,0,0,0,15.9,70.9Zm0,7a2,2,0,1,0,2,2A2,2,0,0,0,15.9,77.9Zm5,3a1,1,0,1,0,1,1A1,1,0,0,0,20.9,80.9Zm5-7a1,1,0,1,0-1-1A1,1,0,0,0,25.9,73.9Zm0-14a1,1,0,1,0-1-1A1,1,0,0,0,25.9,59.9Zm0,1a2,2,0,1,0,2,2A2,2,0,0,0,25.9,60.9Zm0,7a1,1,0,1,0-1-1A1,1,0,0,0,25.9,67.9Zm-5,7a1,1,0,1,0,1,1A1,1,0,0,0,20.9,74.9Zm10.5,2a1.5,1.5,0,1,0,1.5,1.5A1.5,1.5,0,0,0,31.4,76.9Zm-5.5,6a1,1,0,1,0,1,1A1,1,0,0,0,25.9,82.9Zm-5-13a2,2,0,1,0,2,2A2,2,0,0,0,20.9,69.9Zm5,8a2,2,0,1,0,2,2A2,2,0,0,0,25.9,77.9Zm0-7a1,1,0,1,0-1-1A1,1,0,0,0,25.9,70.9Z"/></g></g></svg>