<svg xmlns="http://www.w3.org/2000/svg" viewBox="0 0 73.8 89.8"><title>Asset 1</title><g id="Layer_2" data-name="Layer 2"><g id="Layer_1-2" data-name="Layer 1"><path d="M41.9,27.9H43a1.64,1.64,0,0,0-.09.5,1.5,1.5,0,0,0,3,0,1.64,1.64,0,0,0-.09-.5H46.9v-1h-5Zm3,3a2,2,0,1,0,2,2A2,2,0,0,0,44.9,30.9Zm-17,16a1,1,0,1,0-1-1A1,1,0,0,0,27.9,46.9Zm1-16a2,2,0,1,0,2,2A2,2,0,0,0,28.9,30.9Zm8,2a2,2,0,0,0-1.72,1H33.9v1h1a2,2,0,0,0,4,0h1v-1H38.62A2,2,0,0,0,36.9,32.9Zm9,12a1,1,0,1,0,1,1A1,1,0,0,0,45.9,44.9Zm-19-17H28a1.64,1.64,0,0,0-.09.5,1.5,1.5,0,0,0,3,0,1.64,1.64,0,0,0-.09-.5H31.9v-1h-5Zm10-3a1,1,0,1,0-1-1A1,1,0,0,0,36.9,24.9Zm0,29s-4,2.69-4,6,4,6,4,6,4-2.69,4-6S36.9,53.9,36.9,53.9Zm18,14a3,3,0,1,0,3,3A3,3,0,0,0,54.9,67.9Zm0,4a1,1,0,1,1,1-1A1,1,0,0,1,54.9,71.9Zm-18-19a1,1,0,1,0-1-1A1,1,0,0,0,36.9,52.9Zm18,8.1a9.9,9.9,0,1,0,9.9,9.9A9.91,9.91,0,0,0,54.9,61Zm0,16A6.1,6.1,0,1,1,61,70.9,6.11,6.11,0,0,1,54.9,77Zm5.9-33.75V21.9A21.92,21.92,0,0,0,38.9,0h-4A21.92,21.92,0,0,0,13,21.9V43.25A31.94,31.94,0,0,0,0,68.9v12c0,3,3.74,5.21,11.78,6.81A134.16,134.16,0,0,0,36.9,89.8,134.16,134.16,0,0,0,62,87.71c8-1.6,11.78-3.77,11.78-6.81v-12A31.94,31.94,0,0,0,60.8,43.25ZM16,45.79l.82-.57V21.9A18.1,18.1,0,0,1,27.19,5.55,2.49,2.49,0,0,0,31.9,4.4c0-.11,0-.22,0-.33a19.1,19.1,0,0,1,2-.22s0,0,0,0a3,3,0,0,0,6,0s0,0,0,0c.36,0,.71,0,1.06.07a2.61,2.61,0,0,0-.05.48,2.49,2.49,0,0,0,4.87.76A18.13,18.13,0,0,1,57,21.9V45.22l.82.57a28.52,28.52,0,0,1,6.39,6.1,15.55,15.55,0,0,1-24-7.4A18,18,0,0,0,50.9,38v2.67c-1.19,1-3,3-3,5.21,0,3.31,4,6,4,6s4-2.69,4-6c0-2.23-1.82-4.18-3-5.21V34.88a17.58,17.58,0,0,0,1.57-11.34v0a0,0,0,0,0,0,0c-.06-.34-.15-.67-.24-1s-.1-.43-.16-.64-.19-.56-.29-.85-.17-.5-.27-.75l-.31-.72c-.13-.28-.26-.55-.4-.82l-.33-.61c-.17-.29-.34-.58-.52-.86l-.35-.51c-.2-.3-.43-.59-.65-.88l-.33-.42c-.27-.31-.55-.61-.83-.91l-.28-.3a15.93,15.93,0,0,0-1.22-1.1l0,0c-.41-.33-.83-.64-1.26-.94-.17-.12-.35-.22-.53-.33s-.55-.36-.84-.52L45,10.94l-.8-.38a7.76,7.76,0,0,0-.72-.3c-.27-.11-.54-.21-.82-.3s-.49-.17-.74-.24L41,9.49l-.72-.16c-.34-.07-.7-.11-1.05-.16l-.61-.08a16.29,16.29,0,0,0-3.42,0l-.61.08c-.35,0-.71.09-1,.16l-.72.16c-.3.07-.6.14-.89.23l-.74.23-.82.31c-.25.09-.48.19-.72.29s-.54.26-.8.39l-.66.34c-.29.16-.57.34-.85.52s-.35.21-.52.33c-.44.3-.87.62-1.28,1h0c-.42.35-.83.72-1.22,1.11l-.27.29c-.29.3-.57.6-.84.92-.11.13-.21.27-.32.41s-.46.58-.67.89l-.33.5c-.18.29-.36.57-.53.87l-.33.6c-.14.28-.27.55-.4.83s-.21.47-.31.71-.19.51-.28.77-.19.55-.28.84-.11.43-.16.64-.18.67-.24,1c0,0,0,0,0,0v0A17.91,17.91,0,0,0,19,26.9a17.71,17.71,0,0,0,1.9,8v5.81c-1.19,1-3,3-3,5.21,0,3.31,4,6,4,6s4-2.69,4-6c0-2.23-1.81-4.18-3-5.21V38a17.93,17.93,0,0,0,10.73,6.47,15.55,15.55,0,0,1-24,7.4A28.52,28.52,0,0,1,16,45.79ZM36.9,41A14.12,14.12,0,0,1,22.8,26.9c0-.38,0-.76.06-1.13a18,18,0,0,0,14-8.14,18,18,0,0,0,14,8.14c0,.37.06.75.06,1.13A14.12,14.12,0,0,1,36.9,41ZM70,68.91h-.1a2,2,0,0,0,0,4H70v2.22a3.07,3.07,0,0,0-1.1-.21,3,3,0,0,0,0,6,3.07,3.07,0,0,0,1.1-.21v.11C68.92,82.69,57.1,86,36.9,86s-32-3.31-33.1-5.2v-.11a3.07,3.07,0,0,0,1.1.21,3,3,0,1,0,0-6,3.07,3.07,0,0,0-1.1.21V72.89h.1a2,2,0,1,0,0-4H3.8c0-.73,0-1.46.1-2.18A3,3,0,1,0,5,60.91a28.27,28.27,0,0,1,2.51-5.85A19.33,19.33,0,0,0,36.9,46.57a19.33,19.33,0,0,0,29.41,8.49,28.82,28.82,0,0,1,2.51,5.85,3,3,0,1,0,1.08,5.81c.06.72.1,1.45.1,2.18Zm-32.1-1a1,1,0,1,0-1,1A1,1,0,0,0,37.9,67.9ZM17.9,61a9.9,9.9,0,1,0,9.9,9.9A9.91,9.91,0,0,0,17.9,61Zm0,16A6.1,6.1,0,1,1,24,70.9,6.11,6.11,0,0,1,17.9,77Zm0-9.1a3,3,0,1,0,3,3A3,3,0,0,0,17.9,67.9Zm0,4a1,1,0,1,1,1-1A1,1,0,0,1,17.9,71.9Zm19-2s-4,2.69-4,6,4,6,4,6,4-2.69,4-6S36.9,69.9,36.9,69.9Zm0,13a1,1,0,1,0,1,1A1,1,0,0,0,36.9,82.9Z"/></g></g></svg>