<svg xmlns="http://www.w3.org/2000/svg" viewBox="0 0 73.8 89.8"><title>Asset 1</title><g id="Layer_2" data-name="Layer 2"><g id="Layer_1-2" data-name="Layer 1"><path d="M20.9,81.9a1,1,0,1,0,1,1A1,1,0,0,0,20.9,81.9Zm8-51a2,2,0,1,0,2,2A2,2,0,0,0,28.9,30.9Zm-10,16a1,1,0,1,0-1-1A1,1,0,0,0,18.9,46.9Zm8-19H28a1.64,1.64,0,0,0-.09.5,1.5,1.5,0,0,0,3,0,1.64,1.64,0,0,0-.09-.5H31.9v-1h-5Zm15,0H43a1.64,1.64,0,0,0-.09.5,1.5,1.5,0,0,0,3,0,1.64,1.64,0,0,0-.09-.5H46.9v-1h-5Zm3,3a2,2,0,1,0,2,2A2,2,0,0,0,44.9,30.9Zm-8,2a2,2,0,0,0-1.72,1H33.9v1h1a2,2,0,0,0,4,0h1v-1H38.62A2,2,0,0,0,36.9,32.9Zm-18,22s2-1.57,2-3.5-2-3.5-2-3.5-2,1.57-2,3.5S18.89,54.9,18.89,54.9Zm36-11a1,1,0,1,0-1-1A1,1,0,0,0,54.9,43.9Zm-36,0a1,1,0,1,0-1-1A1,1,0,0,0,18.9,43.9Zm36,3a1,1,0,1,0-1-1A1,1,0,0,0,54.9,46.9Zm-28,3a1,1,0,1,0-1-1A1,1,0,0,0,26.9,49.9Zm20-2a1,1,0,1,0,1,1A1,1,0,0,0,46.9,47.9Zm8,7s2-1.56,2-3.5-2-3.5-2-3.5-2,1.57-2,3.5S54.9,54.88,54.9,54.88Zm-36-23a1,1,0,1,0,1,1A1,1,0,0,0,18.9,31.9Zm35,1a1,1,0,1,0,1-1A1,1,0,0,0,53.9,32.9Zm-26-24a1,1,0,1,0-1-1A1,1,0,0,0,27.9,8.9Zm18,0a1,1,0,1,0-1-1A1,1,0,0,0,45.9,8.9Zm-9,62a2,2,0,1,0,2,2A2,2,0,0,0,36.9,70.9Zm-21-9s-.31,2.52,1.06,3.89,3.89,1.06,3.89,1.06.31-2.52-1.06-3.89S15.93,61.93,15.93,61.93Zm12-3a1,1,0,1,0,1,1A1,1,0,0,0,27.9,58.9Zm-14,13a1,1,0,1,0,1,1A1,1,0,0,0,13.9,71.9Zm23-19s-2,1.57-2,3.5,2,3.5,2,3.5,2-1.57,2-3.5S36.9,52.9,36.9,52.9Zm16,29a1,1,0,1,0,1,1A1,1,0,0,0,52.9,81.9ZM54,63c-1.36,1.37-1.06,3.89-1.06,3.89s2.52.31,3.89-1.06,1.06-3.89,1.06-3.89S55.36,61.61,54,63ZM26.9,73.9a1,1,0,1,0-1-1A1,1,0,0,0,26.9,73.9ZM60.8,43.25V21.9A21.92,21.92,0,0,0,38.9,0h-4A21.92,21.92,0,0,0,13,21.9V43.25A31.94,31.94,0,0,0,0,68.9v12c0,3,3.74,5.21,11.78,6.81.83.17,1.7.32,2.59.47h0l1.43.22.76.1,1.16.16,1.6.19,1.14.13c.9.1,1.81.18,2.74.26l.79.06,2.22.16,1.08.06,2.05.1,1.13.05c.73,0,1.46,0,2.2.06l1,0c1.07,0,2.14,0,3.23,0s2.16,0,3.23,0l1,0,2.2-.07,1.13,0,2-.11,1.09-.06,2.22-.16.79-.06c.93-.08,1.84-.16,2.74-.26l1.14-.13,1.6-.19,1.16-.16.76-.1,1.43-.21v0c.89-.14,1.76-.3,2.59-.47,8-1.6,11.78-3.77,11.78-6.81v-12A31.94,31.94,0,0,0,60.8,43.25ZM16,45.79l.82-.57V40a3,3,0,1,0,0-4.28V21.9A18.12,18.12,0,0,1,34.9,3.8h4A18.12,18.12,0,0,1,57,21.9V35.76A3,3,0,1,0,57,40v5.18l.82.57a28.52,28.52,0,0,1,6.39,6.1,15.61,15.61,0,0,1-3.46,2l.07-.06c1.37-1.36,1.06-3.89,1.06-3.89S59.36,49.61,58,51s-1.07,3.77-1.06,3.88a15.28,15.28,0,0,1-2,.15,16.85,16.85,0,0,1-2-.14c0-.15.26-2.56-1.06-3.88s-3.89-1.06-3.89-1.06-.31,2.52,1.06,3.89l0,0a15.53,15.53,0,0,1-8.87-9.36A17.93,17.93,0,0,0,54.8,26.9c0-.41,0-.82-.06-1.22h.15l-.42-2.16s0,0,0,0c-.06-.33-.15-.65-.23-1s-.1-.45-.17-.67-.18-.55-.27-.82-.18-.52-.28-.77-.2-.47-.31-.71-.26-.56-.4-.83l-.32-.6c-.17-.3-.35-.59-.54-.88s-.2-.33-.31-.48q-.35-.49-.72-1l-.26-.34a18.59,18.59,0,0,0-2.31-2.3c-.12-.11-.26-.2-.39-.31-.29-.22-.58-.45-.88-.66l-.57-.36-.79-.49L45.06,11l-.8-.38c-.23-.1-.46-.21-.7-.3s-.56-.21-.84-.31-.46-.17-.7-.24l-.55-.14a3.51,3.51,0,0,0,1.35-.8c1.37-1.37,1.06-3.89,1.06-3.89S41.36,4.61,40,6A4.67,4.67,0,0,0,38.9,9.11h-.1l-.38,0A3.56,3.56,0,0,0,38.9,7.4c0-1.93-2-3.5-2-3.5s-2,1.57-2,3.5a3.56,3.56,0,0,0,.48,1.68L35,9.1h-.1A4.63,4.63,0,0,0,33.82,6c-1.37-1.37-3.89-1.06-3.89-1.06S29.62,7.45,31,8.82a3.49,3.49,0,0,0,1.33.79l-.54.15-.7.23-.84.31-.7.3c-.27.12-.53.25-.79.39s-.44.22-.65.34-.54.32-.8.49-.38.24-.56.37-.6.43-.89.66l-.39.3a18,18,0,0,0-2.31,2.31c-.09.1-.17.22-.26.33-.25.31-.49.63-.71,1l-.32.48c-.18.29-.37.58-.54.89s-.21.39-.32.59-.27.55-.4.84-.21.46-.3.7-.2.51-.29.77-.19.54-.27.82-.12.45-.17.67-.17.64-.23,1c0,0,0,0,0,0l-.41,2.16h.14c0,.4-.06.81-.06,1.22A17.93,17.93,0,0,0,33.63,44.49a15.57,15.57,0,0,1-8.84,9.35s0,0,0,0c1.37-1.37,1.06-3.89,1.06-3.89S23.35,49.62,22,51s-1.09,3.64-1.06,3.87a17,17,0,0,1-2,.14,15,15,0,0,1-2-.15c0-.3.21-2.58-1.07-3.85s-3.89-1.06-3.89-1.06-.3,2.52,1.06,3.89h0a15.83,15.83,0,0,1-3.41-2A28.52,28.52,0,0,1,16,45.79ZM36.9,41A14.12,14.12,0,0,1,22.8,26.9c0-.38,0-.76.06-1.13a18,18,0,0,0,14-8.14,18,18,0,0,0,14,8.14c0,.37.06.75.06,1.13A14.12,14.12,0,0,1,36.9,41Zm0,44A2.1,2.1,0,1,1,39,82.9,2.1,2.1,0,0,1,36.9,85ZM56,84.85l-.24,0c-.57.08-1.14.15-1.73.21l-.31,0c-3.63.41-7.57.68-11.69.8h0a5.9,5.9,0,1,0-10.12,0h0c-4.12-.13-8.06-.39-11.69-.8l-.31,0-1.73-.22-.24,0c0-.33,0-.64,0-.95v0l.1,0a1,1,0,0,0,0-2,19.09,19.09,0,0,1,38,0,1,1,0,0,0,0,2l.1,0v0C56,84.21,56,84.52,56,84.85ZM70,73a4.23,4.23,0,0,0-2.62-1.12c-1.93,0-3.5,2-3.5,2s1.57,2,3.5,2A4.23,4.23,0,0,0,70,74.78V75.9A4.55,4.55,0,0,0,67,77c-1.36,1.37-1.06,3.89-1.06,3.89s2.52.31,3.89-1.06l.2-.22v1.2c-.57,1-4.09,2.37-10.21,3.46,0-.12,0-.24,0-.36a22.9,22.9,0,0,0-45.8,0c0,.12,0,.24,0,.36C7.89,83.17,4.37,81.79,3.8,80.8V79.59l.2.22c1.36,1.37,3.89,1.06,3.89,1.06s.3-2.52-1.06-3.89a4.59,4.59,0,0,0-3-1.08V74.77a4.23,4.23,0,0,0,2.62,1.12c1.93,0,3.5-2,3.5-2s-1.57-2-3.5-2A4.23,4.23,0,0,0,3.8,73V71.9a4.56,4.56,0,0,0,3-1.09c1.37-1.37,1.06-3.89,1.06-3.89S5.36,66.61,4,68l-.17.19A27.89,27.89,0,0,1,7.49,55.06,19.33,19.33,0,0,0,36.9,46.57a19.33,19.33,0,0,0,29.41,8.49A27.92,27.92,0,0,1,70,68.18L69.81,68c-1.37-1.37-3.89-1.06-3.89-1.06s-.31,2.52,1.06,3.89a4.55,4.55,0,0,0,3,1.08ZM59.9,71.9a1,1,0,1,0,1,1A1,1,0,0,0,59.9,71.9Zm-10,10a1,1,0,1,0,1,1A1,1,0,0,0,49.9,81.9Zm-4-23a1,1,0,1,0,1,1A1,1,0,0,0,45.9,58.9Zm-18,22a2,2,0,1,0,2,2A2,2,0,0,0,27.9,80.9Zm9-14a1,1,0,1,0-1-1A1,1,0,0,0,36.9,66.9Zm-7,7a2,2,0,1,0,2,2A2,2,0,0,0,29.9,73.9Zm-6,8a1,1,0,1,0,1,1A1,1,0,0,0,23.9,81.9Zm1-12a1,1,0,1,0,1,1A1,1,0,0,0,24.9,69.9Zm25,1a1,1,0,1,0-1,1A1,1,0,0,0,49.9,70.9Zm-3,1a1,1,0,1,0,1,1A1,1,0,0,0,46.9,71.9Zm-1,9a2,2,0,1,0,2,2A2,2,0,0,0,45.9,80.9Zm0-5a2,2,0,1,0-2,2A2,2,0,0,0,45.9,75.9Zm-9-6a1,1,0,1,0-1-1A1,1,0,0,0,36.9,69.9Z"/></g></g></svg>