<svg xmlns:dc="http://purl.org/dc/elements/1.1/" xmlns:cc="http://creativecommons.org/ns#" xmlns:rdf="http://www.w3.org/1999/02/22-rdf-syntax-ns#" xmlns:svg="http://www.w3.org/2000/svg" xmlns="http://www.w3.org/2000/svg" xmlns:sodipodi="http://sodipodi.sourceforge.net/DTD/sodipodi-0.dtd" xmlns:inkscape="http://www.inkscape.org/namespaces/inkscape" viewBox="0 0 100.00075 35.294998" version="1.1" x="0px" y="0px"><title>by Cavanaugh</title><g transform="translate(-339.49501,-442.71469)"><rect style="" width="75.370125" height="3.6279979" x="350.37619" y="458.47266" fill="#000000" fill-rule="evenodd" stroke="#000000" stroke-width="0.14790341px" stroke-linecap="butt" stroke-linejoin="miter" stroke-opacity="1"></rect><path style="" d="m 346.52633,455.4494 a 4.4598347,4.4598347 0 0 0 -4.4597,4.45969 4.4598347,4.4598347 0 0 0 4.4597,4.4597 4.4598347,4.4598347 0 0 0 4.45969,-4.4597 4.4598347,4.4598347 0 0 0 -4.45969,-4.45969 z m 0,1.13689 a 3.3983112,3.3983112 0 0 1 3.39831,3.39832 3.3983112,3.3983112 0 0 1 -3.39831,3.39831 3.3983112,3.3983112 0 0 1 -3.39831,-3.39831 3.3983112,3.3983112 0 0 1 3.39831,-3.39832 z" fill="#000000" fill-rule="evenodd" stroke="#000000" stroke-width="0.14249386px" stroke-linecap="butt" stroke-linejoin="miter" stroke-opacity="1"></path><path style="" d="m 181.25041,548.22484 36.67952,63.76872 -69.53923,-0.2079 -73.565099,-0.11896 34.949659,-60.11879 36.88558,-63.64976 z" transform="matrix(0,0.07915696,-0.09128222,0,481.53182,448.6713)" fill="#000000"></path><rect style="" width="0.7551803" height="7.5518031" x="409.96146" y="450.99796" fill="#000000"></rect><path style="" d="m 403.95514,443.59719 c -0.60518,0 -1.09236,0.48492 -1.09236,1.08734 l 0,5.37712 c 0,0.60242 0.48718,1.08735 1.09236,1.08735 l 12.91888,0 c 0.60518,0 1.09236,-0.48493 1.09236,-1.08735 l 0,-5.37712 c 0,-0.60242 -0.48718,-1.08734 -1.09236,-1.08734 l -12.91888,0 z m 0.96905,1.11773 10.98078,0 c 0.51441,0 0.92864,0.33939 0.92864,0.76108 l 0,3.76381 c 0,0.42169 -0.41423,0.76138 -0.92864,0.76138 l -10.98078,0 c -0.51441,0 -0.92864,-0.33969 -0.92864,-0.76138 l 0,-3.76381 c 0,-0.42169 0.41423,-0.76108 0.92864,-0.76108 z" fill="#000000"></path><path style="" d="m 360.15468,443.59719 c -0.60518,0 -1.09236,0.48492 -1.09236,1.08734 l 0,5.37712 c 0,0.60242 0.48718,1.08735 1.09236,1.08735 l 12.91889,0 c 0.60518,0 1.09235,-0.48493 1.09235,-1.08735 l 0,-5.37712 c 0,-0.60242 -0.48717,-1.08734 -1.09235,-1.08734 l -12.91889,0 z m 0.96905,1.13277 10.9808,0 c 0.51439,0 0.92863,0.33939 0.92863,0.76109 l 0,3.7641 c 0,0.42169 -0.41424,0.76108 -0.92863,0.76108 l -10.9808,0 c -0.51439,0 -0.92864,-0.33939 -0.92864,-0.76108 l 0,-3.7641 c 0,-0.4217 0.41425,-0.76109 0.92864,-0.76109 z" fill="#000000"></path><rect style="" width="0.7551803" height="7.5518031" x="366.16101" y="450.99796" fill="#000000"></rect><rect style="" width="0.7551803" height="7.5518031" x="388.06125" y="462.17465" fill="#000000"></rect><path style="" d="m 382.0549,469.57539 c -0.60516,0 -1.09235,0.48492 -1.09235,1.08735 l 0,5.37712 c 0,0.60242 0.48719,1.08733 1.09235,1.08733 l 12.9189,0 c 0.60517,0 1.09236,-0.48491 1.09236,-1.08733 l 0,-5.37712 c 0,-0.60243 -0.48719,-1.08735 -1.09236,-1.08735 l -12.9189,0 z m 0.96905,1.11773 10.9808,0 c 0.51439,0 0.92864,0.33938 0.92864,0.76107 l 0,3.76382 c 0,0.42169 -0.41425,0.76137 -0.92864,0.76137 l -10.9808,0 c -0.51439,0 -0.92862,-0.33968 -0.92862,-0.76137 l 0,-3.76382 c 0,-0.42169 0.41423,-0.76107 0.92862,-0.76107 z" fill="#000000"></path></g></svg>