<svg xmlns="http://www.w3.org/2000/svg" viewBox="0 0 95.62 47.25"><defs><style>.cls-1{fill:#fff;}</style></defs><title>Asset 35</title><g id="Layer_2" data-name="Layer 2"><g id="Layer_1-2" data-name="Layer 1"><path d="M73.6,25.68c-.1-.5-.1-1.1-.2-1.6,0-.1-.1-.2-.2-.3-.2.1-.3.1-.4.3l-.3.6h-.2v-.9c.1-.8-.5-1.2-.8-1.8h-.1a5.78,5.78,0,0,0-1.4.5,9.27,9.27,0,0,0-1.4,1.4,1.07,1.07,0,0,0-.2.6,3.14,3.14,0,0,1-.7,2.1c0,.1-.1.1-.2.1s-.1-.1-.2-.2c-.2-.6-.5-1.2-.7-1.9s-.3-1.3-.5-2c0-.2,0-.4-.4-.3s-.4-.1-.4-.4c0-.7-.7-.7-1-1.1a.49.49,0,0,0-.3.1,2,2,0,0,1-1.7,0c-.1,0-.2-.1-.3-.2a.63.63,0,0,0-.8-.3c-.3.1-1-.4-1.3-.9a1.38,1.38,0,0,0-.4-.3c0,.2-.1.4,0,.5.3.5.6.9.9,1.4a.6.6,0,0,0,.4.1c.2-.1.4-.3.6-.4a5.55,5.55,0,0,1,.8.6c.3.2.3.4.2.7a3.54,3.54,0,0,1-2.5,2.1l-.6.3a14.67,14.67,0,0,0-1.4.6c0,.1,0,.5.1.6a1.18,1.18,0,0,0,.8-.1,3.55,3.55,0,0,0,.9-.4c.3-.1.5,0,.4.4a4.87,4.87,0,0,1-.4,1.1l-.6,1.2a1,1,0,0,1-.4.5,6.74,6.74,0,0,0-1.9,2.2c-.4.5-.1,1.1.2,1.6a2.16,2.16,0,0,1-.4,2.4c-.2.2-.5.4-.7.6a.91.91,0,0,0-.2,1.1c.2.4.1.7-.4.8s-.5.3-.3.6c.1.1,0,.4-.1.5a7.55,7.55,0,0,1-1.1,1.4,2.32,2.32,0,0,1-1,.4,4.51,4.51,0,0,0-1.1.3c-.4.2-.8.1-.8-.3a4,4,0,0,0-.7-1.9.63.63,0,0,1,0-.6,1.09,1.09,0,0,0-.2-1.1,3.24,3.24,0,0,1-.8-2.3,3.18,3.18,0,0,1,.3-.9,1.7,1.7,0,0,0,.1-.7L49.3,31c-.1-.5-.2-1-.7-1.2-.1,0-.1-.3-.1-.4,0-.3.2-.7.2-1a.75.75,0,0,0-.1-.5.45.45,0,0,0-.5,0c-.4.2-.6.1-.7-.3-.3-.7-.8-.7-1.4-.3a1.4,1.4,0,0,1-.9.3c-.4.1-.8-.2-1.2.3,0,0-.4,0-.4-.1a7.63,7.63,0,0,1-.8-1.1,1.59,1.59,0,0,0-.9-.9,1.29,1.29,0,0,1-.6-1.5,2.25,2.25,0,0,0,.2-1.8.66.66,0,0,1,.1-.6c.1-.3.2-.5.3-.8a1.27,1.27,0,0,1,1-1.1.63.63,0,0,0,.5-.6c0-.8.6-1.1,1.2-1.5h.1c.6.2,1-.2,1.5-.4a6.11,6.11,0,0,1,1.3-.3,3.4,3.4,0,0,1,1-.1c.4-.1.6.1.8.4s0,.5-.5.7a7,7,0,0,1,.9.6c.4.2.9.4,1.3.6a.43.43,0,0,0,.7-.2c.2-.4.4-.5.8-.3a2,2,0,0,0,.8.1c.5.1,1,.1,1.5.2.3.1.5,0,.7-.3s.2-.3.3-.5c.2-.7.2-.8-.6-.8a4.87,4.87,0,0,1-1.2-.1c-.4-.2-.8-.4-.7-1a.76.76,0,0,0-.2-.4c-.3.2-.6.3-.4.7s-.1.5-.3.7a2.19,2.19,0,0,1-.5.3A9.82,9.82,0,0,0,51,16a6.39,6.39,0,0,0-1.5-1.3c.2.8.9,1,1.3,1.5-.1.3-.2.6-.3,1-.1-.1-.2-.3-.3-.4l-.7-.7c-.3-.3-.6-.5-.9-.8a.48.48,0,0,0-.7-.1c-.2.1-.5.1-.8.2a.52.52,0,0,0-.4.2,1.21,1.21,0,0,0-.5.5c-.2.2-.4.3-.4.5-.1.5-.4.7-.9.9a1.85,1.85,0,0,1-.7.2,4.88,4.88,0,0,1-.7-.3.75.75,0,0,1-.4-.9,2.2,2.2,0,0,0,.1-.8c0-.5.2-.7.7-.6.3,0,.6.1.9.1s.6,0,.7-.4a.7.7,0,0,0-.4-.9c-.1-.1-.3-.1-.4-.2v-.1c.4-.1.9-.3,1.3-.4v-.1c-.6-.1-1.1-.2-1.8-.3a7.27,7.27,0,0,1,.8-.9,3.33,3.33,0,0,0-.6-.3,1,1,0,0,1-.8,1.1c-.3.1-.5,0-.5-.3-.1-.7.4-.9.8-1.1.1-.3.1-.7.2-.8a1.37,1.37,0,0,1,1.5-.1c.1,0,.1.3,0,.3-.3.4-.1.6.2.9s.4.5.6.7.4.2.5.1a6.73,6.73,0,0,0,1.1-.7.6.6,0,0,0,.1-.4,2.19,2.19,0,0,1,.3-.5c.2-.1.4,0,.4.3s.2.5.5.5a10.87,10.87,0,0,0,1.8-.1c.1,0,.2-.1.3-.2.1-.6.4-.9,1-.7-.1-.2-.1-.3-.2-.5.4,0,.8-.1,1.1-.1a.76.76,0,0,0,.4-.2.76.76,0,0,0-.4-.2,2.77,2.77,0,0,0-.9.1.42.42,0,0,1-.6-.3c-.1-.3-.3-.6.1-.8s.5-.4.8-.6c-.5-.3-.8-.2-.9.2s-.4.5-.7.6c-.5.2-.5.2-.2.7,0,.1.1.1.1.2,0,.6-1.1,1.6-1.7,1.5a.22.22,0,0,1-.2-.2c-.1-.2-.1-.5-.2-.8-.1.1-.3.1-.4.2a.68.68,0,0,1-1.1-.3,1.28,1.28,0,0,1,.7-1.8c.2-.1.3-.1.5-.2a4.44,4.44,0,0,0,1.1-.8c.4-.3.8-.7,1.2-1a2.86,2.86,0,0,1,3.3-.1,3.42,3.42,0,0,0,2.2.5.66.66,0,0,1,.8.8h.5c.2-.2-.1-.8.4-.8.2,0,.3.2.4.3,1.1-.1,2.2-.2,3.3-.2.1,0,.3-.1.4-.1a1.09,1.09,0,0,1,1.1-.2,8.4,8.4,0,0,1,1.2.4.77.77,0,0,1-.1-.3c-.5-.3-.4-.6,0-.8.1-.1.2-.3.3-.3a1.42,1.42,0,0,1,.6-.2c.3.1.5.3.4.6a2.15,2.15,0,0,1,0,.8l-.3.9c.6-.1.8-.6.7-1.4a1.7,1.7,0,0,1,.1-.7h.2a6.13,6.13,0,0,0,.4.6c.1-.2.1-.3.2-.4.2-.3.4-.4.7-.1a4.73,4.73,0,0,0,1.2.7c-.1-.1-.2-.3-.3-.4s-.3-.2-.4-.3a.31.31,0,0,1-.1-.2.35.35,0,0,1,.2-.1,3.38,3.38,0,0,0,2-.6,1.27,1.27,0,0,1,.6-.1c.5.1.8-.3,1.1-.4s.7.2,1.1.2c.2,0,.3-.1.5-.2a2.92,2.92,0,0,1,.9-.2,7.49,7.49,0,0,0,2.1.2h.1c.7.1.7.1.5.7v.2a3.4,3.4,0,0,1,1,.1c.2,0,.4.1.7.1h.9c.5,0,.9-.1,1.4-.1.3,0,.4.2.4.5,0,.5.2.6.7.4a.75.75,0,0,1,.5-.1,4.87,4.87,0,0,0,1.2-.1,1.21,1.21,0,0,0,.5-.5c.1-.3-.2-.3-.4-.4a.76.76,0,0,1-.4-.2c.1-.1.1-.3.2-.3.5,0,1.1.1,1.6.1a.76.76,0,0,1,.4.2c-.1.1-.2.2-.3.2s-.1.1-.2.1c.2.4.5.4.9.5a1.93,1.93,0,0,1,1,.3,2.22,2.22,0,0,0,1.6.3,2.23,2.23,0,0,1,1.4.3c.1.1.4.1.5.1.7,0,1.4-.3,2,.2,0,0,.3-.1.3-.2a.4.4,0,0,1,.6-.2,4.25,4.25,0,0,0,1.1.2c.6,0,.8.2.8.8,0,.4.1.7-.2,1-.1.1.1.4.1.6-.3.1-.7,0-1.1.2a5.1,5.1,0,0,1-2.7.6.67.67,0,0,0-.7.6,1.62,1.62,0,0,1-.7,1.4c-.4.3-.7.8-1.1,1.1-.1.1-.2.1-.1.1-.1-.5-.1-1-.2-1.5a1.31,1.31,0,0,1,.6-1.2c.3-.2.6-.3.9-.5v-.1c-.4-.7-.4-.7-1-.2a2.09,2.09,0,0,1-.6.4.76.76,0,0,1-1,.1c.1-.1-.2-.1-.5-.1H86.1a1.14,1.14,0,0,0-.8.3,10.59,10.59,0,0,0-1.2,1,.52.52,0,0,0,.7.3,3.55,3.55,0,0,1,1,.2.1.1,0,0,1,.1.1,5.85,5.85,0,0,1,.2,1.3,1.85,1.85,0,0,1-.2.7c0,.1-.1.2-.1.3-.1-.1-.2-.1-.2-.2a4.1,4.1,0,0,1-.1-1.1l-.2.2a2.4,2.4,0,0,1-1.1,1.5c-.2.2-.3.4-.5.5a.76.76,0,0,1-.5.2.81.81,0,0,0-.9.4c-.3.4-.7.7-.2,1.3.1.2-.1.6-.2.9,0,.1-.3.1-.5.1,0-.2-.1-.3-.1-.5.1-.4.1-.6-.4-.6a2.2,2.2,0,0,0-.1-.8,4.88,4.88,0,0,0-.7.3c-.1-.2-.1-.3-.2-.4h-.1l-.3.3-.3.3c.2.1.3.3.5.4s.4.1.6.2l-.5.5-.1.1c.1.2.2.5.3.7a1.68,1.68,0,0,1-.4,2.2,2.65,2.65,0,0,0-.5.6,1.84,1.84,0,0,1-1.4.8c-.6.1-.6.1-.5.7a1.42,1.42,0,0,1-.2.6h-.3a.9.9,0,0,1-.1-.5h0v-.7a1,1,0,0,0-.5.4.85.85,0,0,0,0,.7,5.5,5.5,0,0,0,.7.9,1.12,1.12,0,0,1-.4,1.7,1,1,0,0,0-.4.5,2.09,2.09,0,0,1-.4.6c-.4-.7-.4-1.5-1.2-2-.1.2-.1.4-.2.5-.4.2-.5.3-.6.3ZM61.3,14.38c-.4-.8-.5-.8-1.2-.5a.75.75,0,0,1-.5.1c-.4,0-.7.4-.5.7a5.55,5.55,0,0,0,.6.8c.5.4.6.4,0,.8-.2.2-.3.4-.1.5a5.64,5.64,0,0,0,1.2.4s.2-.1.2-.2a8,8,0,0,0-.3-1.5,2.65,2.65,0,0,0-.5-.6c-.1-.1-.2-.3-.1-.4a.52.52,0,0,1,.4-.2C60.9,14.28,61.1,14.38,61.3,14.38ZM56.4,14c-.1.1-.2.3-.4.4a.37.37,0,0,1-.6,0c-.5-.6-.5-.6-.9.1,0,.1-.1.1-.1.2-.4.3-.3.7-.2,1.1a4.51,4.51,0,0,0,1.1-.3,1.28,1.28,0,0,1,1.2,0,1.73,1.73,0,0,0,1,.1c.4,0,.4-.3.1-.5a5.55,5.55,0,0,1-.8-.6A1,1,0,0,1,56.4,14Zm1.5,10.6h0a1.68,1.68,0,0,0-.5-1.8,3,3,0,0,1-.5-.7,12.2,12.2,0,0,1-.7-1.7c-.1-.1-.3-.1-.4-.2v.4c.2.6.3,1.1.5,1.7.1.3.1.6.2.8a5.24,5.24,0,0,0,1,1.1C57.6,24.28,57.8,24.38,57.9,24.58Zm-.5-17c-.5,0-.9.1-1.3.1,0,.3,0,.5.4.3.1,0,.2-.1.3,0C57.3,8.38,57.3,8,57.4,7.58Zm-1.7,21.7a1.24,1.24,0,0,1-.3-.2c-.1.1-.2.3-.3.4s.1.2.2.3A1.76,1.76,0,0,0,55.7,29.28ZM67.2,6.78c.3,0,.5.1.7.1a.6.6,0,0,0-.1-.4C67.6,6.38,67.4,6.38,67.2,6.78Z"/><path d="M17.5,5.18c-.2.6-.2.7.4.9a1.38,1.38,0,0,1,.4.3c-.2.1-.3.3-.5.3a6.37,6.37,0,0,1-.7.2v.2h1.8a2.18,2.18,0,0,0,.1-.6c.2-.1.2-.1.8.6.4-.2.4-.4.3-.8-.1-.2,0-.4,0-.5.2.1.4.1.5.2s.3.3.5.5.2.1.4.2a1.42,1.42,0,0,0,.6.2v.2c.2-.1.4-.3.6-.4v-.2c-.2,0-.4-.1-.6-.1a.66.66,0,0,1-.7-.8c0-.3.7-.7.9-.6s.2.2.2.3a.6.6,0,0,0,.1.4c.3-.7.9-.5,1.4-.6a2,2,0,0,1,1.5.4,5.78,5.78,0,0,0,1.4.5c.4.1.7.2.8.6a.22.22,0,0,0,.2.2,4.18,4.18,0,0,0,1,.4c.2.1.5.1.3.4s-.5.3-.7.3-.4-.2-.6-.2a5.5,5.5,0,0,0,.7.9,3.54,3.54,0,0,1-2.3-.2c-.4-.1-.8-.1-1.2-.2a.76.76,0,0,1-.4-.2c.1-.1.2-.4.3-.4.5.1.7-.3,1-.7l-.9.3c.2-.6.1-.8-.4-.8a2.77,2.77,0,0,0-.9.1c.4.6.4.6-.5,1.1.2.2.4.3.6.5s.1.3.2.4h-.4a3.75,3.75,0,0,1-1-.1l-.1-.2c-.3.1-.5.1-.8.2-.6.1-1.3,1-1.1,1.5.1.3.2.6.6.5a.76.76,0,0,1,.5.2c.3.1.6.3.8.2.7-.2,1,.4,1.4.8.1.1,0,.2.1.4s.2.2.2.3c.1-.1.2-.2.2-.3a4.4,4.4,0,0,0-.2-1c.1,0,.2.1.3,0s.4-.1.4-.2,0-.4-.1-.5c-.5-.4-.2-.9-.1-1.3a.41.41,0,0,1,.5-.2c.6.1,1.3.3,1.9.4l-.1.1c.1.2.1.5.2.6a.54.54,0,0,0,.8-.2c.2-.3.4-.2.6,0l.6.9c.1.1.1.2.2.3l1.5.9a.76.76,0,0,0-.1.4c-.2.4-.3.7.3.9.2,0,.3.4.5.6l-.1.1H29.9c.2-.5.3-.8.5-1.2-.5.2-1.1.1-1.3.7,0,0-.3,0-.4-.1a.63.63,0,0,0-.8-.2c-.7.1-.7.2-.8.7.2-.1.4-.1.6-.2.6-.2.8-.1.8.5.3,0,.5.4.9.2,0,0,.2.1.2.2s-.1.3-.2.3c-.4.2-.9.3-1.3.5-.1,0-.3,0-.3-.1-.3-.4-.6-.2-.9-.1s-.2.4-.1.7-.1.4-.3.3c-.5-.1-.7.1-.9.5s-.6.6-.4,1.1c0,.1-.1.2-.2.3-.4.4-.8.7-1.2,1.1a.59.59,0,0,0-.1.8,3,3,0,0,1,.2,1c0,.1-.1.2-.2.4-.1-.1-.2-.1-.3-.2s-.3-.4-.4-.6c-.1-.7-1.3-.8-1.7-.6a1.27,1.27,0,0,1-.6.1,1.43,1.43,0,0,0-1.5.6,3.08,3.08,0,0,0-.1,1,1.57,1.57,0,0,0,.6,1.7,1.42,1.42,0,0,0,.4.2c.2-.2.7,0,.8-.5,0-.1.3-.3.4-.4a.61.61,0,0,1,.6.1c.1.1,0,.4,0,.6-.1.4-.1.7-.2,1.2h.6c.5-.1.9.2.8.7,0,.3-.1.5-.1.8,0,.6.4.7.9.5a.45.45,0,0,1,.5,0c.4.3.5.1.7-.2a2,2,0,0,1,1.2-.8c0,.3-.1.5-.1.8.3-.4.5-.7,1-.3.2.2.7,0,1.1,0h.5c.2,0,.3.1.5.1-.1.4,0,.6.5.8.2.1.3.3.4.4s.3.2.4.1c.4-.2.6,0,.8.2a6,6,0,0,1,.9,1.3c.1.1,0,.3,0,.5.6.3,1.3.6,1.9.9.1,0,.2.1.3.1a.83.83,0,0,1,.8.3,2.19,2.19,0,0,0,.5.3c.6.3.8.7.5,1.3s-.6.9-.8,1.4a3.18,3.18,0,0,0-.3.9,4.45,4.45,0,0,1-.7,2.3c-.1.1-.2.1-.4.2-.4.2-.8.3-1.2.5s-.5.4-.3.8a.6.6,0,0,1-.1.4c-.3.5-.8.8-1,1.4a1.1,1.1,0,0,1-1.2.8,4.88,4.88,0,0,1-.3.7c.3.2,0,.3-.4.3s-.6.1-.5.6h-.7c.6.6-.1.9-.3,1.3-.1.1-.2.3-.3.4a3.33,3.33,0,0,0,.6.3c-.2.3-.4.5-.6.8a1.27,1.27,0,0,0-.4.7c.1.4.3.8.8.8.1,0,.1,0,.2.1a1.57,1.57,0,0,1-2.5-.8c0-.2-.2-.4-.2-.6a6.6,6.6,0,0,1-.1-1.4V44c.5-.6.3-1.3.5-2,.1-.3,0-.7.1-1a1.42,1.42,0,0,1,.2-.6c.1-.4.1-.8.2-1.2s.2-.5.3-.8c0-.1.1-.2.1-.3a13.4,13.4,0,0,1,.1-2c.1-.8-.1-1.4-.8-1.6-.9-.3-1.1-1.1-1.4-1.9-.2-.5-.3-1.2-.8-1.5a.35.35,0,0,1-.1-.2c.2-.8-.3-1.8.6-2.4.6-.4.6-1.3-.1-2-.7.4-.7.4-1.3-.2-.4-.3-.8-.5-.8-1.1,0-.1-.3-.3-.4-.3a2.39,2.39,0,0,1-1.3-.7.48.48,0,0,0-.7-.1c-.1.1-.3,0-.4,0h0a1.19,1.19,0,0,1-1.3-.9c0-.1-.1-.1-.2-.2-.6-.1-.6-.5-.8-1a11.22,11.22,0,0,0-1.6-2.2l-.1.1c.3.4.5.9.8,1.3.1.1.1.2.1.4a.6.6,0,0,1-.4-.1c-.2-.2-.3-.4-.5-.5l-.6-.6-.1-.1c.2-.5-.3-.8-.4-1.2-.2-.6-.4-1.2-1.2-1.3-.1,0-.3-.1-.3-.2-.2-.9-.9-1.6-.7-2.6.1-.2,0-.5,0-.7a1.56,1.56,0,0,0-.8-1.3c-.2-.1-.2-.3-.3-.5a2.51,2.51,0,0,0-.4-.7,1.41,1.41,0,0,0-.5.3.66.66,0,0,1-.4-.5c-.1-.4-.2-.8-.7-.9l-.1-.1c-.1-.7-.7-.7-1.2-.9s-1.3-.3-1.9-.5a.9.9,0,0,1-1.5.2v.7a.5.5,0,0,1-.6.5c-.3-.1-.4,0-.6.2s-.5.2-.8.3-.5.1-.7.2-.3.1-.5,0c.4-.6,1.2-.7,1.8-1.2a4.87,4.87,0,0,1-1.5-.2,1,1,0,0,1-.1-.3c-.4.2-.7.2-.9-.2-.4-.5.1-.7.4-.9a4.88,4.88,0,0,1-.7-.3,1.38,1.38,0,0,1-.3-.4c.1-.1.3-.3.4-.3a2.77,2.77,0,0,1,.9.1.6.6,0,0,1,.4.1c0-.1,0-.1.1-.2-.3-.1-.6-.3-.9-.4-.1-.1-.3-.2-.4-.3.2-.1.3-.3.5-.3l1.8-.6c.1,0,.2-.1.3,0a6.75,6.75,0,0,1,1.4.2,3.55,3.55,0,0,1,1,.2c.3,0,.6-.1.8,0s.6.1.8.1c.4.1.8.3,1.2.4h.1c.4-.4,1-.1,1.4-.3a2,2,0,0,1,1.5,0c.2.1.5-.1.9-.2a6.13,6.13,0,0,0-.6-.4,1,1,0,0,1,1.3-.8,2.49,2.49,0,0,0,.8-.1c.1,0,.2-.2.2-.3s-.2-.1-.3-.1c-.3,0-.6.1-1,.1A1.31,1.31,0,0,1,14.3,4c.4.2.9.3,1.4.5h.1c.4-.5.9,0,1.5-.2-.1.3-.1.6-.2.9.1-.1.3,0,.4,0Zm6.5,9,.1-.1a2.77,2.77,0,0,1-.9-.1c-.3,0-.6-.2-.9.2-.2.2-.1,1.1.1,1.4a2.2,2.2,0,0,1,.1-.8c.1-.3.2-.6.6-.6s.4.3.4.6c0,.1.1.2.2.4A4.05,4.05,0,0,1,24,14.18Zm-2.7-.8h1.6C22.4,12.68,22.2,12.68,21.3,13.38Zm-7-8.5V5c.8.4,1.6.5,2,.1a2.15,2.15,0,0,0-.8,0c-.3,0-.6.1-.8-.2C14.7,4.78,14.4,4.88,14.3,4.88Zm-.4,1.8c0-.1.1-.1.1-.2-.2-.3-.4-.5-.6-.8a5.74,5.74,0,0,0-.7.4A6.72,6.72,0,0,0,13.9,6.68Zm10.4,8.6a6.73,6.73,0,0,0,1.1-.7C24.7,14.48,24.4,14.68,24.3,15.28Z"/><path d="M26.3,3.78a.9.9,0,0,1,.5-.1c.2-.1.4-.3.6-.4s.3-.1.4-.2l.3-.3c.1-.1.1-.3.2-.3.9-.4,1.7-1.3,2.9-.7.3.2.6,0,.7-.4s.1-.6.5-.3a3.38,3.38,0,0,1,1.1-.7,5,5,0,0,1,3.8,0,1.7,1.7,0,0,0,1,0c.4,0,.5.2.6.5a6.12,6.12,0,0,0,.5,1.2c.3.4.6.1.8-.1a1.23,1.23,0,0,1,.8-.4c.2,0,.3.2.4.2-.1.1-.1.3-.3.4-.4.4-.8.7-1.2,1.1-.2.2-.3.5,0,.7.1,0,.1.2,0,.3l-.3.9h-.3c-.5-.1-.6,0-.5.5.2.7.2.8-.6,1.1-.5.2-1.1.2-1.6.4a2.19,2.19,0,0,0-.5.3.75.75,0,0,1-.7.4c-.5,0-.9.1-1,.7a6,6,0,0,1-.6,1.1c-.1.2-.3.3-.6.1a6,6,0,0,1-1.1-.6,3.07,3.07,0,0,1-1-1.5c-.1-.8-.7-1.4-.7-2.2,0-.1-.2-.3-.4-.4a3.36,3.36,0,0,0-2.6-.3.37.37,0,0,1-.3-.1A2.42,2.42,0,0,0,26.3,3.78Z"/><path d="M84.2,40a3.39,3.39,0,0,0-.6.6.37.37,0,0,1-.1-.3c0-.3-.2-.4-.4-.6-.7-.6-1.4.1-2,0-.1,0-.2.3-.3.4-.1.4-.2.6-.7.4a.88.88,0,0,0-.7.1,2.35,2.35,0,0,1-.8.2.85.85,0,0,1-.5-.3c-.1-.1,0-.4.1-.5a.61.61,0,0,0,0-.8c-.2-.5-.3-1-.5-1.6,0-.1-.1-.2-.2-.3-.3-.3-.2-.6,0-.9.4-.4.7-.8,1.4-.8a1.33,1.33,0,0,0,.8-.3c.1-.1.2-.4.1-.5,0-.6,0-.6.6-.6.1,0,.3-.2.4-.3.2-.3.4-.7.8-.2,0,0,.3,0,.4-.1l.3-.6c.2,0,.3-.1.5-.1a3.59,3.59,0,0,1,1.1.2c.1,0,.1.3,0,.5a.42.42,0,0,0,.3.6c.3.1.5.4.8.6a1.13,1.13,0,0,0,.3-1.1,1,1,0,0,1,.2-1c.3.5.7,1,1,1.5,0,.1.1.2.1.3a1.18,1.18,0,0,0,.9,1.2c.3.1.4.3.5.6a7.84,7.84,0,0,0,.5,1.4,2.84,2.84,0,0,1,.4,1.2,1.61,1.61,0,0,1-.3.9,4.35,4.35,0,0,0-1,1.6,1.61,1.61,0,0,1-1.3.6c-.1,0-.2-.1-.2,0-.4.4-.7-.1-1-.2-.1,0-.1-.1-.2-.1A4.36,4.36,0,0,0,84.2,40Z"/><path d="M84.5,31.58a.71.71,0,0,0-.6-.9,4.87,4.87,0,0,1-1.1-.4c.2-.4.1-.7-.4-.8.2-.4.2-.4.5-.2a3.81,3.81,0,0,0,1,.3,3.29,3.29,0,0,1,3,1.7,8.65,8.65,0,0,1,.7,1c.1.1,0,.2,0,.4h-.4c-.2-.2-.5-.4-.6-.6-.2-.4-.5-.4-.7-.1-.1.1-.1.2-.2.3-.2.3-.3.3-.6,0A1.34,1.34,0,0,0,84.5,31.58Z"/><path d="M79,27.38v1a2.35,2.35,0,0,1-.2.8,4.88,4.88,0,0,1-.3.7c-.1.1-.1.4-.3.4a1.61,1.61,0,0,1-1.9-1.6.22.22,0,0,1,.2-.2c.5,0,.8-.5,1.2-.8s.7-.3.7-.7h.4A.52.52,0,0,0,79,27.38Z"/><path d="M60.3,34a20.16,20.16,0,0,1-.7,2.3c-.1.3-.2.5-.3.8s-.4.5-.6.3a.85.85,0,0,1-.3-.5,6.53,6.53,0,0,1,0-1.4,1.29,1.29,0,0,1,.7-1.5,1,1,0,0,0,.4-.5l.4-.4c.1.2.2.3.3.5s0,.3.1.4Z"/><path d="M72.6,27.38a.9.9,0,0,1,.5.1,4.35,4.35,0,0,1,.7.6c.6.6,1.2,1.1,1.8,1.7a.45.45,0,0,1,0,.5c-.2.7.1,1,.8,1.1a3.4,3.4,0,0,1,1,.1c.2,0,.4.2.6.3,0,.1,0,.2-.1.2-.4,0-.7-.1-1.1-.1-.1,0-.2-.2-.3-.1a1.27,1.27,0,0,1-1.4-.7.85.85,0,0,0-.5-.3.86.86,0,0,1-.7-.9,2.43,2.43,0,0,0-.9-1.8c-.2-.2-.3-.4-.4-.5Z"/><path d="M84.9,15.48a.92.92,0,0,1,.6-1c.3-.1.7.2,1.1.4-.1.1-.1.2-.2.3s-.5.1-.7.2q-.6,0-.3.6a1.63,1.63,0,0,1-.6,1.7,4.55,4.55,0,0,1-1.9.8c-.1,0-.1.1-.2.1-.1.2-.3.4-.5.1a.52.52,0,0,1,0-.8c.4-.3.7-.6,1.3-.5s1.3-.7,1.4-1.5Z"/><path d="M64.6,4.78a3.15,3.15,0,0,0-2.2.3c-.3.2-.5.3-.3.7s-.1.5-.3.4a3.58,3.58,0,0,1-1.1-.4s0-.4.1-.4c1-.6,2-1.4,3.3-1.3.3,0,.5-.1.8-.1h.4c-.1.1-.1.3-.2.4C64.9,4.68,64.7,4.68,64.6,4.78Z"/><path d="M42.1,7.68a1.48,1.48,0,0,1-1.8.8.6.6,0,0,0-.4-.1c-.3-.1-.5-.3-.4-.6s.4-.2.6-.1.6.1.9.1A4.1,4.1,0,0,1,42.1,7.68Z"/><path d="M92.9,44.38c-.2-.1-.4-.2-.4-.3s0-.4.2-.5c.4-.4.9-.8,1.3-1.2a.6.6,0,0,1,.4-.1c.1,0,.2.3.1.4l-.3.6a3,3,0,0,1-.8.8C93.2,44.28,93,44.28,92.9,44.38Z"/><path d="M73.5,25.68l.9,1.2a6.19,6.19,0,0,1,.7,1.9,1.37,1.37,0,0,1-1-.8,11.11,11.11,0,0,1-.7-1.6c0-.2.1-.4.1-.7Z"/><path d="M79.9,23.08c.3.2.3.2,0,1.1.2.1.5.2.7.3a10.63,10.63,0,0,0-1.1.9s-.1-.1,0-.1c.3-.4.3-.7,0-1a.45.45,0,0,1,0-.5A1,1,0,0,1,79.9,23.08Z"/><path d="M94.8,42.48a2.09,2.09,0,0,1-.4-.6v-1.4l.3.3c.2.3.3.6.7.6.1,0,.1.1.1.2A2.18,2.18,0,0,1,94.8,42.48Z"/><path d="M79.2,30.38c-.2-.8,0-1.1.7-1,.1,0,.3.1.4.1-.1.1-.1.3-.2.4.1.2.2.3.2.5v.4c-.1-.1-.3-.1-.4-.2s-.1-.2-.2-.4C79.6,30.28,79.4,30.28,79.2,30.38Z"/><path d="M17.5,5.18c0-.1-.1-.2-.1-.4-.1-.5,0-.6.5-.6h.8a.76.76,0,0,1,.4.2s0,.3-.1.3a.75.75,0,0,1-.5.1c-.5-.3-.6-.2-1,.4Z"/><path d="M23.1,22c.2-.4.9-.4,1.3-.2l.9.6c.1.1.1.2.2.2-.1,0-.2.1-.3.1h0A2.83,2.83,0,0,0,23.1,22Z"/><path d="M25.9,23.18c.3-.4.6-.6,1-.5s.5.3.4.8A3.53,3.53,0,0,0,25.9,23.18Z"/><path d="M68.6,26a.76.76,0,0,1,.2.4c0,.4.2.8-.3,1.1-.3-.5-.1-1-.1-1.5C68.5,26.08,68.5,26.08,68.6,26Z"/><path d="M87.2,42.38a.75.75,0,0,1-.4.9c-.5.1-.4-.4-.6-.6C86.6,42.58,86.9,42.48,87.2,42.38Z"/><path d="M49.9,16.58c.2.1.4.1.5.2a.37.37,0,0,1,.1.3,1,1,0,0,0-.3.1c-.2-.1-.3-.3-.5-.4C49.8,16.68,49.9,16.68,49.9,16.58Z"/><path d="M80,20.88v.5a1.38,1.38,0,0,1-.3.4s-.2,0-.2-.1a.75.75,0,0,1,.1-.5C79.6,21.08,79.8,21.08,80,20.88Z"/><path d="M80.5,26.08l-.6-.3.3-.3c.2.1.3.3.5.4C80.6,25.88,80.6,26,80.5,26.08Z"/><path d="M49.1,16.08c-.2.1-.2.3-.3.3a.22.22,0,0,1-.2-.2c0-.1.1-.2.2-.3S48.9,15.88,49.1,16.08Z"/><path class="cls-1" d="M24,14.18a9.44,9.44,0,0,0-.3.9c-.1-.2-.2-.3-.2-.4,0-.3,0-.6-.4-.6s-.5.3-.6.6a2.49,2.49,0,0,1-.1.8c-.2-.3-.3-1.2-.1-1.4s.6-.2.9-.2.6.1.9.1C24.1,14.08,24.1,14.08,24,14.18Z"/><path class="cls-1" d="M21.3,13.38c.8-.7,1-.7,1.6,0Z"/><path class="cls-1" d="M14.3,4.88c.1,0,.4-.1.4,0,.2.3.5.2.8.2h.8a2.06,2.06,0,0,1-2-.1Z"/><path class="cls-1" d="M13.9,6.68c-.4-.2-.8-.3-1.2-.5a5.74,5.74,0,0,1,.7-.4,5.55,5.55,0,0,1,.6.8A.1.1,0,0,0,13.9,6.68Z"/><path class="cls-1" d="M24.3,15.28c.2-.6.4-.8,1.1-.7C24.9,14.88,24.7,15.08,24.3,15.28Z"/><path d="M16.4,3c1.1-.6,1.1.2.1.2A.35.35,0,0,0,16.4,3Z"/><path d="M2,10.48c0,.6-.2.7-.7.6C1.5,10.88,1.7,10.78,2,10.48Z"/><path class="cls-1" d="M15.7,4c.4,0,.4.2.8.2a4.82,4.82,0,0,0,1.2,0,2,2,0,0,1-2-.1Z"/><path class="cls-1" d="M15.3,5.78c-.4-.2-.7-.3-1.2-.5a5.74,5.74,0,0,1,.7-.4c.2.2.4.5.6.7C15.4,5.68,15.4,5.78,15.3,5.78Z"/></g></g></svg>